<svg xmlns="http://www.w3.org/2000/svg" width="1386" height="757" viewBox="0 0 1386 757">
<g>
<path d="M 1171.00 445.43 C1163.16,447.78 1147.99,448.31 1140.00,446.52 C1131.33,444.56 1120.46,438.94 1113.70,432.92 C1110.66,430.21 1107.91,428.00 1107.59,428.00 C1107.27,428.00 1107.00,431.83 1107.00,436.50 L 1107.00 445.00 L 1076.00 445.00 L 1076.00 260.00 L 1108.00 260.00 L 1108.00 327.23 L 1112.09 323.53 C1118.31,317.92 1127.11,312.56 1133.64,310.42 C1141.66,307.79 1164.86,307.67 1173.00,310.22 C1185.67,314.18 1199.12,324.86 1206.27,336.62 C1208.27,339.91 1211.34,346.86 1213.10,352.05 C1219.00,369.54 1218.18,392.16 1211.04,409.22 C1203.66,426.83 1189.10,439.99 1171.00,445.43 ZM 774.00 368.00 L 774.00 445.00 L 742.29 445.00 L 741.65 437.35 C741.29,433.14 741.00,392.87 741.00,347.85 L 741.00 266.00 L 773.98 266.00 L 774.24 302.25 L 774.50 338.50 L 860.00 339.02 L 860.00 266.00 L 893.00 266.00 L 893.00 445.05 L 876.75 444.77 L 860.50 444.50 L 860.24 406.25 L 859.98 368.00 ZM 270.69 444.97 C261.42,447.32 242.92,448.26 231.51,446.96 C210.75,444.60 188.33,434.82 174.83,422.23 L 170.15 417.87 L 178.83 406.47 C183.60,400.19 187.85,395.05 188.28,395.03 C188.71,395.01 191.35,396.81 194.16,399.03 C212.50,413.53 235.40,420.81 254.27,418.15 C270.55,415.85 279.00,408.72 279.00,397.27 C279.00,390.54 277.19,386.19 272.89,382.55 C267.87,378.30 263.23,376.55 241.04,370.49 C210.06,362.02 198.72,356.99 188.84,347.32 C179.77,338.44 176.47,328.66 177.17,312.74 C177.55,303.94 177.92,302.51 181.78,294.71 C188.84,280.47 201.55,270.80 219.86,265.76 C226.21,264.01 230.37,263.65 244.50,263.62 C259.09,263.60 262.71,263.91 270.00,265.87 C280.73,268.74 294.64,275.32 302.83,281.41 L 309.15 286.11 L 306.73 289.30 C305.39,291.06 301.49,296.44 298.05,301.25 C294.62,306.06 291.65,310.00 291.47,310.00 C291.28,310.00 287.49,307.56 283.04,304.59 C278.59,301.61 271.02,297.69 266.22,295.87 C257.85,292.71 256.92,292.58 243.00,292.54 C229.16,292.50 228.27,292.62 223.41,295.19 C215.65,299.28 210.01,306.99 210.01,313.50 C210.01,316.42 212.39,322.31 214.67,325.02 C219.38,330.61 226.11,333.19 259.00,341.97 C279.61,347.48 291.27,353.08 299.75,361.56 C311.50,373.31 315.63,389.22 311.49,406.77 C309.29,416.09 305.49,422.72 298.11,430.07 C290.54,437.62 282.53,441.97 270.69,444.97 ZM 632.32 488.50 C625.24,490.35 615.43,490.30 607.51,488.39 C600.20,486.62 587.99,481.11 588.04,479.60 C588.06,479.00 590.02,474.00 592.40,468.50 C595.00,462.51 596.11,459.77 598.00,459.04 C599.56,458.43 601.66,459.21 605.58,460.65 C605.79,460.73 606.01,460.81 606.23,460.89 C613.73,463.66 620.37,463.61 626.03,460.75 C629.60,458.95 631.08,457.33 633.46,452.64 L 636.43 446.78 L 634.29 441.14 C633.11,438.04 630.05,430.55 627.49,424.50 C619.92,406.66 581.79,313.66 581.25,311.73 C580.79,310.07 581.90,309.97 598.10,310.23 L 615.44 310.50 L 633.87 359.25 C644.01,386.06 652.58,408.00 652.91,408.00 C653.24,408.00 654.76,404.51 656.28,400.25 C657.80,395.99 665.86,373.94 674.19,351.25 L 689.34 310.00 L 706.28 310.00 C719.43,310.00 723.10,310.28 722.71,311.25 C722.43,311.94 716.80,326.23 710.20,343.00 C677.64,425.80 662.56,462.96 659.46,468.07 C653.07,478.59 643.91,485.49 632.32,488.50 ZM 984.17 446.55 C961.32,451.39 937.17,441.44 928.54,423.63 C922.80,411.76 922.68,410.49 922.25,358.25 L 921.85 310.00 L 955.00 310.00 L 955.00 349.82 C955.00,392.38 955.51,398.42 959.72,406.21 C967.85,421.22 991.14,423.02 1004.45,409.66 C1013.35,400.73 1013.50,399.76 1013.50,351.50 L 1013.50 310.50 L 1030.26 310.23 L 1047.01 309.95 L 1046.76 377.23 L 1046.50 444.50 L 1015.00 445.05 L 1014.99 441.78 C1014.99,439.97 1014.71,436.23 1014.38,433.47 L 1013.77 428.43 L 1008.10 433.97 C1001.52,440.39 993.60,444.55 984.17,446.55 ZM 403.00 444.16 C393.84,447.20 374.62,447.79 367.49,445.25 C355.17,440.87 349.49,435.49 345.09,424.07 L 342.56 417.50 L 342.21 377.25 L 341.86 337.00 L 323.00 337.00 L 323.00 310.00 L 342.00 310.00 L 342.00 275.00 L 375.00 275.00 L 375.00 310.00 L 409.00 310.00 L 409.00 337.00 L 375.00 337.00 L 375.00 372.75 C375.01,406.42 375.12,408.69 376.96,411.70 C379.74,416.26 383.11,418.11 389.71,418.70 C394.05,419.08 397.10,418.67 401.87,417.06 C405.37,415.87 408.42,415.09 408.65,415.32 C408.88,415.55 409.75,421.26 410.58,428.03 C410.70,428.94 410.80,429.78 410.90,430.57 C411.65,436.44 411.98,439.06 410.86,440.64 C409.80,442.11 407.47,442.68 403.00,444.16 ZM 1135.29 417.61 C1137.91,418.46 1142.74,418.87 1148.08,418.69 C1158.72,418.33 1165.56,415.32 1172.44,407.96 C1191.13,387.98 1185.86,351.47 1162.52,339.15 C1157.97,336.75 1156.47,336.50 1146.50,336.50 C1136.98,336.51 1134.86,336.82 1130.78,338.85 C1123.04,342.69 1117.41,348.39 1113.45,356.39 C1101.10,381.39 1111.22,409.76 1135.29,417.61 Z" fill="rgb(11,35,73)"/>
<path d="M 506.22 511.25 C502.70,515.51 499.52,518.99 499.16,518.97 C498.11,518.93 480.47,496.14 470.81,482.34 C452.61,456.34 433.68,421.45 427.43,402.36 C418.47,375.01 422.05,352.19 438.76,330.19 C447.96,318.07 461.23,308.86 476.50,304.00 C487.25,300.59 505.66,300.10 517.50,302.93 C539.75,308.23 558.02,322.90 568.11,343.55 C574.48,356.58 576.31,365.17 575.76,379.50 C575.40,388.92 574.80,392.08 571.60,401.50 C561.69,430.61 532.92,478.91 506.22,511.25 ZM 489.75 413.98 C491.81,414.50 497.24,414.77 501.81,414.57 C508.63,414.28 511.25,413.66 516.40,411.12 C524.14,407.31 532.14,399.11 535.76,391.25 C538.04,386.33 538.43,384.12 538.46,375.98 C538.50,367.12 538.26,365.98 535.08,359.51 C526.92,342.93 510.82,334.16 493.49,336.86 C480.00,338.96 469.34,346.84 463.58,359.00 C460.75,364.98 460.50,366.34 460.51,376.00 C460.51,385.57 460.77,387.03 463.44,392.48 C468.44,402.70 478.87,411.23 489.75,413.98 Z" fill="rgb(247,196,11)"/>
<path d="M 0.00 378.50 L 0.00 0.00 L 693.00 0.00 L 1386.00 0.00 L 1386.00 378.50 L 1386.00 757.00 L 693.00 757.00 L 0.00 757.00 L 0.00 378.50 ZM 506.22 511.25 C532.92,478.91 561.69,430.61 571.60,401.50 C574.80,392.08 575.40,388.92 575.76,379.50 C576.31,365.17 574.48,356.58 568.11,343.55 C558.02,322.90 539.75,308.23 517.50,302.93 C505.66,300.10 487.25,300.59 476.50,304.00 C461.23,308.86 447.96,318.07 438.76,330.19 C422.05,352.19 418.47,375.01 427.43,402.36 C433.68,421.45 452.61,456.34 470.81,482.34 C480.47,496.14 498.11,518.93 499.16,518.97 C499.52,518.99 502.70,515.51 506.22,511.25 ZM 632.32 488.50 C643.91,485.49 653.07,478.59 659.46,468.07 C662.56,462.96 677.64,425.80 710.20,343.00 C716.80,326.23 722.43,311.94 722.71,311.25 C723.10,310.28 719.43,310.00 706.28,310.00 L 689.34 310.00 L 674.19 351.25 C665.86,373.94 657.80,395.99 656.28,400.25 C654.76,404.51 653.24,408.00 652.91,408.00 C652.58,408.00 644.01,386.06 633.87,359.25 L 615.44 310.50 L 598.10 310.23 C581.90,309.97 580.79,310.07 581.25,311.73 C581.79,313.66 619.92,406.66 627.49,424.50 C630.05,430.55 633.11,438.04 634.29,441.14 L 636.43 446.78 L 633.46 452.64 C631.08,457.33 629.60,458.95 626.03,460.75 C620.37,463.61 613.73,463.66 606.23,460.89 C596.92,457.46 597.26,457.27 592.40,468.50 C590.02,474.00 588.06,479.00 588.04,479.60 C587.99,481.11 600.20,486.62 607.51,488.39 C615.43,490.30 625.24,490.35 632.32,488.50 ZM 270.69 444.97 C282.53,441.97 290.54,437.62 298.11,430.07 C305.49,422.72 309.29,416.09 311.49,406.77 C315.63,389.22 311.50,373.31 299.75,361.56 C291.27,353.08 279.61,347.48 259.00,341.97 C226.11,333.19 219.38,330.61 214.67,325.02 C212.39,322.31 210.01,316.42 210.01,313.50 C210.01,306.99 215.65,299.28 223.41,295.19 C228.27,292.62 229.16,292.50 243.00,292.54 C256.92,292.58 257.85,292.71 266.22,295.87 C271.02,297.69 278.59,301.61 283.04,304.59 C287.49,307.56 291.28,310.00 291.47,310.00 C291.65,310.00 294.62,306.06 298.05,301.25 C301.49,296.44 305.39,291.06 306.73,289.30 L 309.15 286.11 L 302.83 281.41 C294.64,275.32 280.73,268.74 270.00,265.87 C262.71,263.91 259.09,263.60 244.50,263.62 C230.37,263.65 226.21,264.01 219.86,265.76 C201.55,270.80 188.84,280.47 181.78,294.71 C177.92,302.51 177.55,303.94 177.17,312.74 C176.47,328.66 179.77,338.44 188.84,347.32 C198.72,356.99 210.06,362.02 241.04,370.49 C263.23,376.55 267.87,378.30 272.89,382.55 C277.19,386.19 279.00,390.54 279.00,397.27 C279.00,408.72 270.55,415.85 254.27,418.15 C235.40,420.81 212.50,413.53 194.16,399.03 C191.35,396.81 188.71,395.01 188.28,395.03 C187.85,395.05 183.60,400.19 178.83,406.47 L 170.15 417.87 L 174.83 422.23 C188.33,434.82 210.75,444.60 231.51,446.96 C242.92,448.26 261.42,447.32 270.69,444.97 ZM 984.17 446.55 C993.60,444.55 1001.52,440.39 1008.10,433.97 L 1013.77 428.43 L 1014.38 433.47 C1014.71,436.23 1014.99,439.97 1014.99,441.78 L 1015.00 445.05 L 1030.75 444.78 L 1046.50 444.50 L 1046.76 377.23 L 1047.01 309.95 L 1030.26 310.23 L 1013.50 310.50 L 1013.50 351.50 C1013.50,399.76 1013.35,400.73 1004.45,409.66 C991.14,423.02 967.85,421.22 959.72,406.21 C955.51,398.42 955.00,392.38 955.00,349.82 L 955.00 310.00 L 938.42 310.00 L 921.85 310.00 L 922.25 358.25 C922.68,410.49 922.80,411.76 928.54,423.63 C937.17,441.44 961.32,451.39 984.17,446.55 ZM 1171.00 445.43 C1189.10,439.99 1203.66,426.83 1211.04,409.22 C1218.18,392.16 1219.00,369.54 1213.10,352.05 C1211.34,346.86 1208.27,339.91 1206.27,336.62 C1199.12,324.86 1185.67,314.18 1173.00,310.22 C1164.86,307.67 1141.66,307.79 1133.64,310.42 C1127.11,312.56 1118.31,317.92 1112.09,323.53 L 1108.00 327.23 L 1108.00 293.62 L 1108.00 260.00 L 1092.00 260.00 L 1076.00 260.00 L 1076.00 352.50 L 1076.00 445.00 L 1091.50 445.00 L 1107.00 445.00 L 1107.00 436.50 C1107.00,431.83 1107.27,428.00 1107.59,428.00 C1107.91,428.00 1110.66,430.21 1113.70,432.92 C1120.46,438.94 1131.33,444.56 1140.00,446.52 C1147.99,448.31 1163.16,447.78 1171.00,445.43 ZM 403.00 444.16 C412.88,440.89 412.32,442.08 410.58,428.03 C409.75,421.26 408.88,415.55 408.65,415.32 C408.42,415.09 405.37,415.87 401.87,417.06 C397.10,418.67 394.05,419.08 389.71,418.70 C383.11,418.11 379.74,416.26 376.96,411.70 C375.12,408.69 375.01,406.42 375.00,372.75 L 375.00 337.00 L 392.00 337.00 L 409.00 337.00 L 409.00 323.50 L 409.00 310.00 L 392.00 310.00 L 375.00 310.00 L 375.00 292.50 L 375.00 275.00 L 358.50 275.00 L 342.00 275.00 L 342.00 292.50 L 342.00 310.00 L 332.50 310.00 L 323.00 310.00 L 323.00 323.50 L 323.00 337.00 L 332.43 337.00 L 341.86 337.00 L 342.21 377.25 L 342.56 417.50 L 345.09 424.07 C349.49,435.49 355.17,440.87 367.49,445.25 C374.62,447.79 393.84,447.20 403.00,444.16 ZM 774.00 406.50 L 774.00 368.00 L 816.99 368.00 L 859.98 368.00 L 860.24 406.25 L 860.50 444.50 L 876.75 444.77 L 893.00 445.05 L 893.00 355.52 L 893.00 266.00 L 876.50 266.00 L 860.00 266.00 L 860.00 302.51 L 860.00 339.02 L 817.25 338.76 L 774.50 338.50 L 774.24 302.25 L 773.98 266.00 L 757.49 266.00 L 741.00 266.00 L 741.00 347.85 C741.00,392.87 741.29,433.14 741.65,437.35 L 742.29 445.00 L 758.15 445.00 L 774.00 445.00 L 774.00 406.50 ZM 489.75 413.98 C478.87,411.23 468.44,402.70 463.44,392.48 C460.77,387.03 460.51,385.57 460.51,376.00 C460.50,366.34 460.75,364.98 463.58,359.00 C469.34,346.84 480.00,338.96 493.49,336.86 C510.82,334.16 526.92,342.93 535.08,359.51 C538.26,365.98 538.50,367.12 538.46,375.98 C538.43,384.12 538.04,386.33 535.76,391.25 C532.14,399.11 524.14,407.31 516.40,411.12 C511.25,413.66 508.63,414.28 501.81,414.57 C497.24,414.77 491.81,414.50 489.75,413.98 ZM 1135.29 417.61 C1111.22,409.76 1101.10,381.39 1113.45,356.39 C1117.41,348.39 1123.04,342.69 1130.78,338.85 C1134.86,336.82 1136.98,336.51 1146.50,336.50 C1156.47,336.50 1157.97,336.75 1162.52,339.15 C1185.86,351.47 1191.13,387.98 1172.44,407.96 C1165.56,415.32 1158.72,418.33 1148.08,418.69 C1142.74,418.87 1137.91,418.46 1135.29,417.61 Z" fill="rgb(254,254,254)"/>
</g>
</svg>